<svg xmlns="http://www.w3.org/2000/svg" viewBox="0 0 1200 630" width="1200" height="630">
  <defs>
    <linearGradient id="bg" x1="0%" y1="0%" x2="100%" y2="0%">
      <stop offset="0%" stop-color="#3730a3"/>
      <stop offset="100%" stop-color="#7c3aed"/>
    </linearGradient>
  </defs>

  <!-- Background -->
  <rect width="1200" height="630" fill="url(#bg)"/>

  <!-- Subtle grid -->
  <g stroke="#ffffff" stroke-opacity="0.06" stroke-width="1">
    <line x1="0"    y1="0" x2="0"    y2="630"/>
    <line x1="40"   y1="0" x2="40"   y2="630"/>
    <line x1="80"   y1="0" x2="80"   y2="630"/>
    <line x1="120"  y1="0" x2="120"  y2="630"/>
    <line x1="160"  y1="0" x2="160"  y2="630"/>
    <line x1="200"  y1="0" x2="200"  y2="630"/>
    <line x1="240"  y1="0" x2="240"  y2="630"/>
    <line x1="280"  y1="0" x2="280"  y2="630"/>
    <line x1="320"  y1="0" x2="320"  y2="630"/>
    <line x1="360"  y1="0" x2="360"  y2="630"/>
    <line x1="400"  y1="0" x2="400"  y2="630"/>
    <line x1="440"  y1="0" x2="440"  y2="630"/>
    <line x1="480"  y1="0" x2="480"  y2="630"/>
    <line x1="520"  y1="0" x2="520"  y2="630"/>
    <line x1="560"  y1="0" x2="560"  y2="630"/>
    <line x1="600"  y1="0" x2="600"  y2="630"/>
    <line x1="640"  y1="0" x2="640"  y2="630"/>
    <line x1="680"  y1="0" x2="680"  y2="630"/>
    <line x1="720"  y1="0" x2="720"  y2="630"/>
    <line x1="760"  y1="0" x2="760"  y2="630"/>
    <line x1="800"  y1="0" x2="800"  y2="630"/>
    <line x1="840"  y1="0" x2="840"  y2="630"/>
    <line x1="880"  y1="0" x2="880"  y2="630"/>
    <line x1="920"  y1="0" x2="920"  y2="630"/>
    <line x1="960"  y1="0" x2="960"  y2="630"/>
    <line x1="1000" y1="0" x2="1000" y2="630"/>
    <line x1="1040" y1="0" x2="1040" y2="630"/>
    <line x1="1080" y1="0" x2="1080" y2="630"/>
    <line x1="1120" y1="0" x2="1120" y2="630"/>
    <line x1="1160" y1="0" x2="1160" y2="630"/>
    <line x1="0" y1="0"   x2="1200" y2="0"/>
    <line x1="0" y1="40"  x2="1200" y2="40"/>
    <line x1="0" y1="80"  x2="1200" y2="80"/>
    <line x1="0" y1="120" x2="1200" y2="120"/>
    <line x1="0" y1="160" x2="1200" y2="160"/>
    <line x1="0" y1="200" x2="1200" y2="200"/>
    <line x1="0" y1="240" x2="1200" y2="240"/>
    <line x1="0" y1="280" x2="1200" y2="280"/>
    <line x1="0" y1="320" x2="1200" y2="320"/>
    <line x1="0" y1="360" x2="1200" y2="360"/>
    <line x1="0" y1="400" x2="1200" y2="400"/>
    <line x1="0" y1="440" x2="1200" y2="440"/>
    <line x1="0" y1="480" x2="1200" y2="480"/>
    <line x1="0" y1="520" x2="1200" y2="520"/>
    <line x1="0" y1="560" x2="1200" y2="560"/>
    <line x1="0" y1="600" x2="1200" y2="600"/>
  </g>

  <!-- Logo box top-right -->
  <rect x="1060" y="60" width="80" height="80" rx="16" fill="#ffffff" fill-opacity="0.15"/>
  <text x="1100" y="116" font-family="system-ui, -apple-system, Helvetica, sans-serif"
        font-size="56" font-weight="800" fill="#ffffff" text-anchor="middle">t</text>

  <!-- Main title -->
  <text x="80" y="280"
        font-family="system-ui, -apple-system, Helvetica, sans-serif"
        font-size="100" font-weight="800" fill="#ffffff" letter-spacing="-2">tikho.me</text>

  <!-- Divider -->
  <rect x="80" y="310" width="600" height="4" rx="2" fill="#ffffff" fill-opacity="0.5"/>

  <!-- Subtitle -->
  <text x="80" y="370"
        font-family="system-ui, -apple-system, Helvetica, sans-serif"
        font-size="36" font-weight="500" fill="#c7d2fe">Platform Engineering · Cloud · Open Source</text>

  <!-- URL -->
  <text x="80" y="560"
        font-family="system-ui, -apple-system, Helvetica, sans-serif"
        font-size="28" font-weight="400" fill="#a5b4fc">https://tikho.me</text>
</svg>

