<svg viewBox="0 0 700 260" xmlns="http://www.w3.org/2000/svg">
  <defs>
    <style>
      text { font-family: 'Virgil', 'Segoe Print', 'Comic Sans MS', cursive; fill: #1e1e2e; }
      .dim { fill: #4b5563; }
      .sketch { stroke-linecap: round; stroke-linejoin: round; }
      .arrow { stroke: #111827; stroke-width: 2.2; fill: none; stroke-linecap: round; }
    </style>
    <marker id="arr" markerWidth="16" markerHeight="16" refX="12" refY="8" orient="auto">
      <path d="M2,2 L12,8 L2,14" fill="none" stroke="#111827" stroke-width="2.2" stroke-linecap="round" stroke-linejoin="round"/>
      <path d="M3,3 L11,8 L3,13" fill="none" stroke="#111827" stroke-width="1.4" stroke-linecap="round" stroke-linejoin="round" opacity="0.75"/>
    </marker>
  </defs>
  <rect width="700" height="260" fill="#fffdf8"/>

  <rect x="16" y="18" width="170" height="58" rx="10" fill="#dceafe" stroke="#111827" stroke-width="2.2" class="sketch"/>
  <rect x="18" y="20" width="166" height="54" rx="9" fill="none" stroke="#111827" stroke-width="1.1" class="sketch" opacity="0.35"/>
  <text x="101" y="44" text-anchor="middle" font-size="16" font-weight="700"># (empty)</text>
  <text x="101" y="65" text-anchor="middle" font-size="13" class="dim">no hash</text>
  <path d="M190,47 L257,47" class="arrow" marker-end="url(#arr)"/>
  <path d="M190,49 L256,48" class="arrow" marker-end="url(#arr)" opacity="0.35"/>
  <rect x="261" y="18" width="170" height="58" rx="10" fill="#dff3e4" stroke="#111827" stroke-width="2.2" class="sketch"/>
  <rect x="263" y="20" width="166" height="54" rx="9" fill="none" stroke="#111827" stroke-width="1.1" class="sketch" opacity="0.35"/>
  <text x="346" y="44" text-anchor="middle" font-size="16" font-weight="700">home page</text>
  <text x="346" y="65" text-anchor="middle" font-size="13" class="dim">post list</text>
  <text x="458" y="44" font-size="13" class="dim">↺ refresh restores state</text>

  <rect x="16" y="100" width="170" height="58" rx="10" fill="#ece7fb" stroke="#111827" stroke-width="2.2" class="sketch"/>
  <rect x="18" y="102" width="166" height="54" rx="9" fill="none" stroke="#111827" stroke-width="1.1" class="sketch" opacity="0.35"/>
  <text x="101" y="126" text-anchor="middle" font-size="16" font-weight="700">#post-{id}</text>
  <text x="101" y="147" text-anchor="middle" font-size="13" class="dim">post id</text>
  <path d="M190,129 L257,129" class="arrow" marker-end="url(#arr)"/>
  <path d="M190,131 L256,130" class="arrow" marker-end="url(#arr)" opacity="0.35"/>
  <rect x="261" y="100" width="170" height="58" rx="10" fill="#ece7fb" stroke="#111827" stroke-width="2.2" class="sketch"/>
  <rect x="263" y="102" width="166" height="54" rx="9" fill="none" stroke="#111827" stroke-width="1.1" class="sketch" opacity="0.35"/>
  <text x="346" y="124" text-anchor="middle" font-size="16" font-weight="700">post modal</text>
  <text x="346" y="145" text-anchor="middle" font-size="12" class="dim">home + open post</text>
  <text x="458" y="126" font-size="13" class="dim">← back closes modal</text>

  <rect x="16" y="182" width="170" height="58" rx="10" fill="#dceafe" stroke="#111827" stroke-width="2.2" class="sketch"/>
  <rect x="18" y="184" width="166" height="54" rx="9" fill="none" stroke="#111827" stroke-width="1.1" class="sketch" opacity="0.35"/>
  <text x="101" y="208" text-anchor="middle" font-size="16" font-weight="700">#about</text>
  <text x="101" y="229" text-anchor="middle" font-size="13" class="dim">about tab</text>
  <path d="M190,211 L257,211" class="arrow" marker-end="url(#arr)"/>
  <path d="M190,213 L256,212" class="arrow" marker-end="url(#arr)" opacity="0.35"/>
  <rect x="261" y="182" width="170" height="58" rx="10" fill="#dff3e4" stroke="#111827" stroke-width="2.2" class="sketch"/>
  <rect x="263" y="184" width="166" height="54" rx="9" fill="none" stroke="#111827" stroke-width="1.1" class="sketch" opacity="0.35"/>
  <text x="346" y="208" text-anchor="middle" font-size="16" font-weight="700">about page</text>
  <text x="346" y="229" text-anchor="middle" font-size="13" class="dim">skills + bio</text>
  <text x="458" y="210" font-size="13" class="dim">nav links update hash</text>
</svg>

