<svg viewBox="0 0 980 360" xmlns="http://www.w3.org/2000/svg">
  <defs>
    <style>
      @font-face {
        font-family: 'Virgil';
        src: url('https://excalidraw.com/Virgil.woff2') format('woff2');
        font-display: swap;
      }
      text { font-family: 'Virgil', 'Segoe Print', 'Comic Sans MS', cursive; fill: #1e1e2e; }
      .dim { fill: #4b5563; }
      .sketch { stroke-linecap: round; stroke-linejoin: round; }
    </style>
  </defs>
  <rect width="980" height="360" fill="#fffdf8"/>

  <path d="M28,305 L952,305" stroke="#94a3b8" stroke-width="2" stroke-linecap="round"/>
  <text x="490" y="334" text-anchor="middle" font-size="14" class="dim">time →</text>

  <rect x="28" y="196" width="158" height="98" rx="10" fill="#dceafe" stroke="#111827" stroke-width="2.2" class="sketch"/>
  <rect x="30" y="198" width="154" height="94" rx="9" fill="none" stroke="#111827" stroke-width="1.1" class="sketch" opacity="0.35"/>
  <text x="107" y="228" text-anchor="middle" font-size="16" font-weight="700">head script</text>
  <text x="107" y="252" text-anchor="middle" font-size="14" class="dim">hide page</text>
  <text x="107" y="274" text-anchor="middle" font-size="14" class="dim">apply theme</text>
  <line x1="107" y1="196" x2="107" y2="305" stroke="#94a3b8" stroke-width="1.5" stroke-dasharray="5,3"/>

  <rect x="206" y="144" width="196" height="150" rx="10" fill="#d9f2ef" stroke="#111827" stroke-width="2.2" class="sketch"/>
  <rect x="208" y="146" width="192" height="146" rx="9" fill="none" stroke="#111827" stroke-width="1.1" class="sketch" opacity="0.35"/>
  <text x="304" y="176" text-anchor="middle" font-size="15" font-weight="700">DOM ready</text>
  <text x="304" y="202" text-anchor="middle" font-size="14" class="dim">fetch manifest</text>
  <text x="304" y="224" text-anchor="middle" font-size="14" class="dim">fetch posts</text>
  <text x="304" y="246" text-anchor="middle" font-size="14" class="dim">Storage.init()</text>
  <line x1="206" y1="294" x2="206" y2="305" stroke="#94a3b8" stroke-width="1.5" stroke-dasharray="5,3"/>

  <rect x="424" y="92" width="216" height="202" rx="10" fill="#ece7fb" stroke="#111827" stroke-width="2.2" class="sketch"/>
  <rect x="426" y="94" width="212" height="198" rx="9" fill="none" stroke="#111827" stroke-width="1.1" class="sketch" opacity="0.35"/>
  <text x="532" y="124" text-anchor="middle" font-size="16" font-weight="700">restore state</text>
  <text x="532" y="152" text-anchor="middle" font-size="14" class="dim">no-transition on</text>
  <text x="532" y="176" text-anchor="middle" font-size="14" class="dim">showPage()</text>
  <text x="532" y="200" text-anchor="middle" font-size="14" class="dim">openPost(skip)</text>
  <text x="532" y="224" text-anchor="middle" font-size="14" class="dim">visibility = visible</text>
  <line x1="424" y1="294" x2="424" y2="305" stroke="#94a3b8" stroke-width="1.5" stroke-dasharray="5,3"/>

  <rect x="662" y="164" width="208" height="130" rx="10" fill="#dff3e4" stroke="#111827" stroke-width="2.2" class="sketch"/>
  <rect x="664" y="166" width="204" height="126" rx="9" fill="none" stroke="#111827" stroke-width="1.1" class="sketch" opacity="0.35"/>
  <text x="766" y="196" text-anchor="middle" font-size="15" font-weight="700">2 × requestAnimationFrame</text>
  <text x="766" y="222" text-anchor="middle" font-size="13" class="dim">wait two render ticks</text>
  <text x="766" y="244" text-anchor="middle" font-size="13" class="dim">page paints without animation</text>
  <text x="766" y="266" text-anchor="middle" font-size="13" class="dim">then remove no-transition</text>
  <line x1="662" y1="294" x2="662" y2="305" stroke="#94a3b8" stroke-width="1.5" stroke-dasharray="5,3"/>

  <rect x="888" y="214" width="74" height="80" rx="10" fill="#fce7f3" stroke="#111827" stroke-width="2.2" class="sketch"/>
  <rect x="890" y="216" width="70" height="76" rx="9" fill="none" stroke="#111827" stroke-width="1.1" class="sketch" opacity="0.35"/>
  <text x="925" y="244" text-anchor="middle" font-size="16" font-weight="700">ready</text>
  <text x="925" y="268" text-anchor="middle" font-size="13" class="dim">animate ✓</text>
  <line x1="888" y1="294" x2="888" y2="305" stroke="#94a3b8" stroke-width="1.5" stroke-dasharray="5,3"/>
</svg>

