<svg viewBox="0 0 860 160" xmlns="http://www.w3.org/2000/svg">
  <defs>
    <style>
      text { font-family: 'Virgil', 'Segoe Print', 'Comic Sans MS', cursive; fill: #1e1e2e; }
      .dim { fill: #4b5563; }
      .sketch { stroke-linecap: round; stroke-linejoin: round; }
      .arrow { stroke: #111827; stroke-width: 2.2; fill: none; stroke-linecap: round; }
    </style>
    <marker id="arr" markerWidth="16" markerHeight="16" refX="12" refY="8" orient="auto">
      <path d="M2,2 L12,8 L2,14" fill="none" stroke="#111827" stroke-width="2.2" stroke-linecap="round" stroke-linejoin="round"/>
      <path d="M3,3 L11,8 L3,13" fill="none" stroke="#111827" stroke-width="1.4" stroke-linecap="round" stroke-linejoin="round" opacity="0.75"/>
    </marker>
  </defs>
  <rect width="860" height="160" fill="#fffdf8"/>

  <rect x="10" y="20" width="170" height="80" rx="10" fill="#fce7f3" stroke="#111827" stroke-width="2.2" class="sketch"/>
  <rect x="12" y="22" width="166" height="76" rx="9" fill="none" stroke="#111827" stroke-width="1.1" class="sketch" opacity="0.35"/>
  <text x="95" y="57" text-anchor="middle" font-size="15" font-weight="700">User action</text>
  <text x="95" y="79" text-anchor="middle" font-size="13" class="dim">like / comment / read</text>

  <text x="204" y="46" text-anchor="middle" font-size="12" class="dim">instant</text>
  <path d="M181,60 L228,60" class="arrow" marker-end="url(#arr)"/>
  <path d="M181,62 L227,61" class="arrow" marker-end="url(#arr)" opacity="0.35"/>

  <rect x="230" y="20" width="170" height="80" rx="10" fill="#dceafe" stroke="#111827" stroke-width="2.2" class="sketch"/>
  <rect x="232" y="22" width="166" height="76" rx="9" fill="none" stroke="#111827" stroke-width="1.1" class="sketch" opacity="0.35"/>
  <text x="315" y="57" text-anchor="middle" font-size="15" font-weight="700">localStorage</text>
  <text x="315" y="79" text-anchor="middle" font-size="13" class="dim">offline / instant UI</text>

  <text x="424" y="46" text-anchor="middle" font-size="12" class="dim">async</text>
  <path d="M401,60 L448,60" class="arrow" marker-end="url(#arr)"/>
  <path d="M401,62 L447,61" class="arrow" marker-end="url(#arr)" opacity="0.35"/>

  <rect x="450" y="20" width="170" height="80" rx="10" fill="#d9f2ef" stroke="#111827" stroke-width="2.2" class="sketch"/>
  <rect x="452" y="22" width="166" height="76" rx="9" fill="none" stroke="#111827" stroke-width="1.1" class="sketch" opacity="0.35"/>
  <text x="535" y="57" text-anchor="middle" font-size="15" font-weight="700">Lambda API</text>
  <text x="535" y="79" text-anchor="middle" font-size="13" class="dim">best-effort sync</text>

  <path d="M621,60 L668,60" class="arrow" marker-end="url(#arr)"/>
  <path d="M621,62 L667,61" class="arrow" marker-end="url(#arr)" opacity="0.35"/>

  <rect x="670" y="20" width="178" height="80" rx="10" fill="#dff3e4" stroke="#111827" stroke-width="2.2" class="sketch"/>
  <rect x="672" y="22" width="174" height="76" rx="9" fill="none" stroke="#111827" stroke-width="1.1" class="sketch" opacity="0.35"/>
  <text x="759" y="57" text-anchor="middle" font-size="15" font-weight="700">DynamoDB</text>
  <text x="759" y="79" text-anchor="middle" font-size="13" class="dim">cross-device truth</text>
</svg>
